<svg width="328" height="50" viewBox="0 0 328 50" fill="none" xmlns="http://www.w3.org/2000/svg">
<path d="M11.541 49L0.021 3.304H10.709L16.149 27.24C16.3197 27.88 16.5117 28.7333 16.725 29.8C16.9383 30.824 17.1517 31.912 17.365 33.064C17.5783 34.1733 17.7703 35.2613 17.941 36.328C18.1543 37.3947 18.325 38.312 18.453 39.08C18.581 37.8853 18.773 36.5413 19.029 35.048C19.285 33.5547 19.5623 32.04 19.861 30.504C20.2023 28.968 20.5223 27.5387 20.821 26.216C21.1197 24.8507 21.3757 23.6987 21.589 22.76L26.517 3.304H36.821L41.621 22.76C41.877 23.6987 42.1543 24.8507 42.453 26.216C42.7517 27.5813 43.0503 29.0533 43.349 30.632C43.6903 32.168 43.989 33.6827 44.245 35.176C44.501 36.6693 44.693 37.9707 44.821 39.08C44.949 38.0133 45.141 36.7333 45.397 35.24C45.6957 33.7467 45.9943 32.2747 46.293 30.824C46.5917 29.3733 46.8477 28.2 47.061 27.304L52.565 3.304H63.253L51.797 49H38.997L33.685 26.984C33.5997 26.5147 33.4503 25.832 33.237 24.936C33.0663 23.9973 32.853 22.9947 32.597 21.928C32.3837 20.8187 32.1917 19.7733 32.021 18.792C31.8503 17.768 31.7223 16.9147 31.637 16.232C31.5943 16.9147 31.4663 17.768 31.253 18.792C31.0823 19.7733 30.8903 20.8187 30.677 21.928C30.4637 22.9947 30.2503 23.9973 30.037 24.936C29.8663 25.832 29.717 26.536 29.589 27.048L24.277 49H11.541ZM68.605 49V0.359997H79.421V8.808C79.421 11.0267 79.357 12.9467 79.229 14.568C79.1437 16.1467 79.0583 17.384 78.973 18.28H79.485C80.253 17.0427 81.1277 16.0613 82.109 15.336C83.133 14.6107 84.2423 14.0773 85.437 13.736C86.6743 13.3947 88.0183 13.224 89.469 13.224C91.901 13.224 94.0343 13.672 95.869 14.568C97.7463 15.464 99.2397 16.8507 100.349 18.728C101.458 20.6053 102.013 23.0587 102.013 26.088V49H91.133V29.096C91.133 26.664 90.7277 24.8507 89.917 23.656C89.1063 22.4187 87.8477 21.8 86.141 21.8C83.581 21.8 81.8103 22.76 80.829 24.68C79.8903 26.6 79.421 29.3733 79.421 33V49H68.605ZM127.369 49.64C123.827 49.64 120.691 49 117.961 47.72C115.23 46.44 113.075 44.4773 111.497 41.832C109.961 39.144 109.193 35.752 109.193 31.656C109.193 27.4747 109.897 24.04 111.305 21.352C112.755 18.6213 114.739 16.5947 117.257 15.272C119.817 13.9067 122.782 13.224 126.153 13.224C129.523 13.224 132.403 13.8213 134.793 15.016C137.225 16.2107 139.081 18.0027 140.361 20.392C141.683 22.7813 142.345 25.7253 142.345 29.224V34.28H120.137C120.222 36.5413 120.969 38.3547 122.377 39.72C123.827 41.0853 125.897 41.768 128.585 41.768C130.803 41.768 132.809 41.5547 134.601 41.128C136.393 40.7013 138.249 40.04 140.169 39.144V47.08C138.462 47.976 136.627 48.616 134.665 49C132.702 49.4267 130.27 49.64 127.369 49.64ZM120.393 27.24H132.361C132.361 25.4053 131.849 23.8693 130.825 22.632C129.843 21.352 128.393 20.712 126.473 20.712C124.766 20.712 123.379 21.2667 122.312 22.376C121.246 23.4427 120.606 25.064 120.393 27.24ZM149.668 49V13.864H157.796L159.46 19.624H159.972C160.996 17.832 162.382 16.3173 164.132 15.08C165.881 13.8427 167.801 13.224 169.892 13.224C170.574 13.224 171.278 13.2667 172.004 13.352C172.729 13.3947 173.284 13.48 173.668 13.608L172.708 23.784C172.238 23.6987 171.684 23.6133 171.044 23.528C170.446 23.4427 169.636 23.4 168.612 23.4C167.46 23.4 166.244 23.6133 164.964 24.04C163.726 24.4667 162.66 25.256 161.764 26.408C160.91 27.56 160.484 29.224 160.484 31.4V49H149.668ZM195.494 49.64C191.952 49.64 188.816 49 186.086 47.72C183.355 46.44 181.2 44.4773 179.622 41.832C178.086 39.144 177.318 35.752 177.318 31.656C177.318 27.4747 178.022 24.04 179.43 21.352C180.88 18.6213 182.864 16.5947 185.382 15.272C187.942 13.9067 190.907 13.224 194.278 13.224C197.648 13.224 200.528 13.8213 202.918 15.016C205.35 16.2107 207.206 18.0027 208.486 20.392C209.808 22.7813 210.47 25.7253 210.47 29.224V34.28H188.262C188.347 36.5413 189.094 38.3547 190.502 39.72C191.952 41.0853 194.022 41.768 196.71 41.768C198.928 41.768 200.934 41.5547 202.726 41.128C204.518 40.7013 206.374 40.04 208.294 39.144V47.08C206.587 47.976 204.752 48.616 202.79 49C200.827 49.4267 198.395 49.64 195.494 49.64ZM188.518 27.24H200.486C200.486 25.4053 199.974 23.8693 198.95 22.632C197.968 21.352 196.518 20.712 194.598 20.712C192.891 20.712 191.504 21.2667 190.438 22.376C189.371 23.4427 188.731 25.064 188.518 27.24ZM247.154 49.64C244.935 49.64 242.972 49.2987 241.266 48.616C239.602 47.8907 238.279 46.6747 237.298 44.968C236.359 43.2187 235.89 40.7867 235.89 37.672V21.992H231.474V17.448L236.786 13.992L239.73 6.568H246.77V13.864H255.73V21.992H246.77V37.032C246.77 38.3547 247.09 39.3573 247.73 40.04C248.412 40.7227 249.351 41.064 250.546 41.064C251.57 41.064 252.53 40.9573 253.426 40.744C254.364 40.488 255.282 40.2107 256.178 39.912V47.848C255.026 48.36 253.724 48.7867 252.274 49.128C250.866 49.4693 249.159 49.64 247.154 49.64ZM278.095 49.64C274.809 49.64 271.865 48.936 269.263 47.528C266.66 46.0773 264.612 43.9867 263.119 41.256C261.668 38.5253 260.943 35.2187 260.943 31.336C260.943 25.5333 262.479 21.0747 265.551 17.96C268.665 14.8027 272.932 13.224 278.351 13.224C281.679 13.224 284.623 13.928 287.183 15.336C289.785 16.7013 291.812 18.7493 293.263 21.48C294.756 24.168 295.503 27.4533 295.503 31.336C295.503 35.2187 294.799 38.5253 293.391 41.256C291.983 43.9867 289.977 46.0773 287.375 47.528C284.815 48.936 281.721 49.64 278.095 49.64ZM278.287 41.448C279.78 41.448 280.975 41.064 281.871 40.296C282.767 39.528 283.428 38.376 283.855 36.84C284.281 35.304 284.495 33.4693 284.495 31.336C284.495 29.16 284.281 27.3467 283.855 25.896C283.428 24.4027 282.745 23.272 281.807 22.504C280.911 21.736 279.716 21.352 278.223 21.352C276.004 21.352 274.404 22.2053 273.423 23.912C272.441 25.6187 271.951 28.0933 271.951 31.336C271.951 33.4693 272.164 35.304 272.591 36.84C273.017 38.376 273.7 39.528 274.639 40.296C275.577 41.064 276.793 41.448 278.287 41.448ZM307.015 31.528C307.015 30.12 307.207 28.8613 307.591 27.752C307.975 26.6427 308.594 25.5973 309.447 24.616C310.343 23.6347 311.516 22.632 312.967 21.608C314.247 20.6693 315.271 19.8373 316.039 19.112C316.85 18.3867 317.426 17.6613 317.767 16.936C318.151 16.2107 318.343 15.4 318.343 14.504C318.343 13.1387 317.831 12.1147 316.807 11.432C315.826 10.7067 314.439 10.344 312.647 10.344C310.855 10.344 309.084 10.6213 307.335 11.176C305.586 11.7307 303.794 12.4773 301.959 13.416L298.567 6.568C300.658 5.416 302.919 4.47733 305.351 3.752C307.783 3.02666 310.45 2.664 313.351 2.664C317.788 2.664 321.223 3.73066 323.655 5.864C326.13 7.99733 327.367 10.7067 327.367 13.992C327.367 15.7413 327.09 17.256 326.535 18.536C325.98 19.816 325.148 21.0107 324.039 22.12C322.93 23.1867 321.543 24.3387 319.879 25.576C318.642 26.472 317.682 27.24 316.999 27.88C316.316 28.52 315.847 29.1387 315.591 29.736C315.378 30.3333 315.271 31.08 315.271 31.976V33.832H307.015V31.528ZM305.991 44.52C305.991 42.5573 306.524 41.192 307.591 40.424C308.658 39.6133 309.959 39.208 311.495 39.208C312.988 39.208 314.268 39.6133 315.335 40.424C316.402 41.192 316.935 42.5573 316.935 44.52C316.935 46.3973 316.402 47.7627 315.335 48.616C314.268 49.4267 312.988 49.832 311.495 49.832C309.959 49.832 308.658 49.4267 307.591 48.616C306.524 47.7627 305.991 46.3973 305.991 44.52Z" fill="black"/>
</svg>
